<?xml version="1.0" standalone="no"?>
<svg xmlns:xlink="http://www.w3.org/1999/xlink" id="wave" style="transform:rotate(0deg); transition: 0.3s" viewBox="0 0 1440 340" version="1.1" xmlns="http://www.w3.org/2000/svg"><defs><linearGradient id="sw-gradient-0" x1="0" x2="0" y1="1" y2="0"><stop stop-color="rgba(0, 0, 0, 1)" offset="0%"/><stop stop-color="rgba(161.972, 161.972, 161.972, 1)" offset="100%"/></linearGradient></defs><path style="transform:translate(0, 0px); opacity:1" fill="url(#sw-gradient-0)" d="M0,204L18.5,181.3C36.9,159,74,113,111,119C147.7,125,185,181,222,170C258.5,159,295,79,332,56.7C369.2,34,406,68,443,68C480,68,517,34,554,17C590.8,0,628,0,665,45.3C701.5,91,738,181,775,198.3C812.3,215,849,159,886,153C923.1,147,960,193,997,226.7C1033.8,261,1071,283,1108,289C1144.6,295,1182,283,1218,272C1255.4,261,1292,249,1329,238C1366.2,227,1403,215,1440,198.3C1476.9,181,1514,159,1551,175.7C1587.7,193,1625,249,1662,260.7C1698.5,272,1735,238,1772,232.3C1809.2,227,1846,249,1883,238C1920,227,1957,181,1994,187C2030.8,193,2068,249,2105,272C2141.5,295,2178,283,2215,232.3C2252.3,181,2289,91,2326,45.3C2363.1,0,2400,0,2437,34C2473.8,68,2511,136,2548,147.3C2584.6,159,2622,113,2640,90.7L2658.5,68L2658.5,340L2640,340C2621.5,340,2585,340,2548,340C2510.8,340,2474,340,2437,340C2400,340,2363,340,2326,340C2289.2,340,2252,340,2215,340C2178.5,340,2142,340,2105,340C2067.7,340,2031,340,1994,340C1956.9,340,1920,340,1883,340C1846.2,340,1809,340,1772,340C1735.4,340,1698,340,1662,340C1624.6,340,1588,340,1551,340C1513.8,340,1477,340,1440,340C1403.1,340,1366,340,1329,340C1292.3,340,1255,340,1218,340C1181.5,340,1145,340,1108,340C1070.8,340,1034,340,997,340C960,340,923,340,886,340C849.2,340,812,340,775,340C738.5,340,702,340,665,340C627.7,340,591,340,554,340C516.9,340,480,340,443,340C406.2,340,369,340,332,340C295.4,340,258,340,222,340C184.6,340,148,340,111,340C73.8,340,37,340,18,340L0,340Z"/><defs><linearGradient id="sw-gradient-1" x1="0" x2="0" y1="1" y2="0"><stop stop-color="rgba(141.481, 141.481, 141.481, 1)" offset="0%"/><stop stop-color="rgba(0, 0, 0, 1)" offset="100%"/></linearGradient></defs><path style="transform:translate(0, 50px); opacity:0.9" fill="url(#sw-gradient-1)" d="M0,170L18.5,164.3C36.9,159,74,147,111,158.7C147.7,170,185,204,222,232.3C258.5,261,295,283,332,294.7C369.2,306,406,306,443,255C480,204,517,102,554,62.3C590.8,23,628,45,665,62.3C701.5,79,738,91,775,130.3C812.3,170,849,238,886,260.7C923.1,283,960,261,997,232.3C1033.8,204,1071,170,1108,164.3C1144.6,159,1182,181,1218,164.3C1255.4,147,1292,91,1329,79.3C1366.2,68,1403,102,1440,141.7C1476.9,181,1514,227,1551,215.3C1587.7,204,1625,136,1662,90.7C1698.5,45,1735,23,1772,34C1809.2,45,1846,91,1883,113.3C1920,136,1957,136,1994,141.7C2030.8,147,2068,159,2105,187C2141.5,215,2178,261,2215,232.3C2252.3,204,2289,102,2326,85C2363.1,68,2400,136,2437,153C2473.8,170,2511,136,2548,147.3C2584.6,159,2622,215,2640,243.7L2658.5,272L2658.5,340L2640,340C2621.5,340,2585,340,2548,340C2510.8,340,2474,340,2437,340C2400,340,2363,340,2326,340C2289.2,340,2252,340,2215,340C2178.5,340,2142,340,2105,340C2067.7,340,2031,340,1994,340C1956.9,340,1920,340,1883,340C1846.2,340,1809,340,1772,340C1735.4,340,1698,340,1662,340C1624.6,340,1588,340,1551,340C1513.8,340,1477,340,1440,340C1403.1,340,1366,340,1329,340C1292.3,340,1255,340,1218,340C1181.5,340,1145,340,1108,340C1070.8,340,1034,340,997,340C960,340,923,340,886,340C849.2,340,812,340,775,340C738.5,340,702,340,665,340C627.7,340,591,340,554,340C516.9,340,480,340,443,340C406.2,340,369,340,332,340C295.4,340,258,340,222,340C184.6,340,148,340,111,340C73.8,340,37,340,18,340L0,340Z"/></svg>